# xmcd
#
# Track frame offsets: 
#        150
#        19821
#        36083
#        55639
#        97919
#        113439
#        133476
#        145885
#        163872
#        185643
#        212257
#        233235
#        242438
#        265725
#        287511
#
# Disc length: 4204 seconds
#
# Revision: 0
# Processed by: cddbd v1.4PL0 Copyright (c) Steve Scherf et al.
# Submitted via: ExactAudioCopy v0.95a3
#
DISCID=c9106a0f
DTITLE=R.L. Burnside - 2000-08-27 Oxford, MS - The Grove Stage - SB
DYEAR=2000
DGENRE=Blues
TTITLE0=101 - Po Black Maddie
TTITLE1=102 - Long Haired Doney
TTITLE2=103 - Shake 'Em Down
TTITLE3=104 - Meet Me At The Bottom - I Feel So Good
TTITLE4=105 - Skinny Woman
TTITLE5=106 - Walkin' Blues
TTITLE6=107 - 'i found me a girl'
TTITLE7=108 - Bad Luck
TTITLE8=109 - Gone To My Herd
TTITLE9=110 - Goin' Down South
TTITLE10=111 - Alice Mae
TTITLE11=112 - 'two brothers'
TTITLE12=113 - Dust My Broom
TTITLE13=114 - Goin' Away Baby
TTITLE14=115 - Let My Baby Ride
EXTD=
EXTT0=
EXTT1=
EXTT2=
EXTT3=
EXTT4=
EXTT5=
EXTT6=
EXTT7=
EXTT8=
EXTT9=
EXTT10=
EXTT11=
EXTT12=
EXTT13=
EXTT14=
PLAYORDER=
